<?xml version="1.0" encoding="utf-8"?>
<!-- Generator: Adobe Illustrator 23.0.1, SVG Export Plug-In . SVG Version: 6.00 Build 0)  -->
<svg version="1.1" id="Layer_1" xmlns="http://www.w3.org/2000/svg" xmlns:xlink="http://www.w3.org/1999/xlink" x="0px" y="0px"
	 viewBox="0 0 200 72" style="enable-background:new 0 0 200 72;" xml:space="preserve">
<style type="text/css">
	.st0{fill:#FFFFFF;}
</style>
<g>
	<path class="st0" d="M30.83,31.18c-0.02,0.31-0.04,0.74-0.05,1.3c-0.01,0.55-0.02,1.12-0.02,1.71c0,0.59,0.01,1.16,0.02,1.73
		c0.01,0.56,0.03,1,0.05,1.31c0.05,0.55,0.16,1.08,0.32,1.58c0.17,0.5,0.43,0.95,0.79,1.33c0.36,0.38,0.82,0.69,1.37,0.92
		c0.55,0.23,1.24,0.34,2.05,0.34c0.82,0,1.49-0.1,2.02-0.29c0.53-0.19,0.96-0.43,1.3-0.7c0.34-0.28,0.59-0.58,0.77-0.92
		s0.32-0.65,0.41-0.94c0.12-0.38,0.25-0.65,0.4-0.81s0.42-0.23,0.83-0.23h4.72c0.22,0,0.4,0.08,0.56,0.23
		c0.16,0.16,0.23,0.34,0.23,0.56c-0.02,1.22-0.32,2.38-0.9,3.46c-0.58,1.08-1.37,2.02-2.38,2.81c-1.01,0.79-2.19,1.42-3.55,1.89
		c-1.36,0.47-2.83,0.7-4.41,0.7c-1.73,0-3.27-0.26-4.63-0.77c-1.36-0.52-2.51-1.22-3.47-2.11c-0.96-0.89-1.7-1.93-2.21-3.11
		c-0.52-1.19-0.81-2.44-0.88-3.76c-0.05-0.98-0.07-2.04-0.07-3.17c0-1.13,0.02-2.21,0.07-3.24c0.05-1.32,0.34-2.57,0.86-3.76
		c0.53-1.19,1.27-2.23,2.21-3.11c0.95-0.89,2.11-1.59,3.47-2.11c1.37-0.52,2.92-0.77,4.64-0.77c1.58,0,3.05,0.23,4.41,0.7
		c1.36,0.47,2.54,1.1,3.55,1.89c1.01,0.79,1.8,1.73,2.38,2.81c0.58,1.08,0.88,2.23,0.9,3.46c0,0.22-0.08,0.4-0.23,0.56
		c-0.16,0.16-0.34,0.23-0.56,0.23h-4.72c-0.41,0-0.68-0.08-0.83-0.23c-0.14-0.16-0.28-0.43-0.4-0.81c-0.1-0.29-0.23-0.6-0.41-0.94
		c-0.18-0.34-0.44-0.64-0.77-0.92c-0.34-0.28-0.77-0.51-1.3-0.7C36.85,27.1,36.18,27,35.36,27c-0.82,0-1.5,0.11-2.05,0.34
		c-0.55,0.23-1.01,0.53-1.37,0.92c-0.36,0.38-0.62,0.83-0.79,1.33C30.98,30.1,30.88,30.62,30.83,31.18z"/>
	<path class="st0" d="M63.98,45.83c0,0.26-0.1,0.49-0.29,0.68c-0.19,0.19-0.42,0.29-0.68,0.29h-4.54c-0.26,0-0.49-0.1-0.68-0.29
		c-0.19-0.19-0.29-0.42-0.29-0.68V22.21c0-0.26,0.1-0.49,0.29-0.68c0.19-0.19,0.42-0.29,0.68-0.29h4.54c0.26,0,0.49,0.1,0.68,0.29
		c0.19,0.19,0.29,0.42,0.29,0.68V45.83z"/>
	<path class="st0" d="M67.98,29.05c0-0.26,0.1-0.49,0.29-0.68c0.19-0.19,0.42-0.29,0.68-0.29h4.54c0.26,0,0.49,0.1,0.68,0.29
		c0.19,0.19,0.29,0.42,0.29,0.68v9.11c0,1.03,0.23,1.86,0.68,2.48c0.46,0.62,1.21,0.94,2.27,0.94s1.81-0.31,2.25-0.94
		c0.44-0.62,0.67-1.45,0.67-2.48v-9.11c0-0.26,0.1-0.49,0.29-0.68c0.19-0.19,0.42-0.29,0.68-0.29h4.54c0.26,0,0.49,0.1,0.69,0.29
		c0.19,0.19,0.29,0.42,0.29,0.68v16.78c0,0.26-0.1,0.49-0.29,0.68c-0.19,0.19-0.42,0.29-0.69,0.29h-4.18c-0.26,0-0.49-0.1-0.68-0.29
		c-0.19-0.19-0.29-0.42-0.29-0.68V45c-0.19,0.26-0.43,0.52-0.7,0.77c-0.28,0.25-0.62,0.48-1.03,0.68c-0.41,0.2-0.88,0.37-1.42,0.5
		s-1.18,0.2-1.93,0.2c-2.33,0-4.18-0.66-5.56-1.98c-1.38-1.32-2.07-3.4-2.07-6.23V29.05z"/>
	<path class="st0" d="M96.6,39.49c0,0.55,0.1,1.01,0.31,1.37c0.2,0.36,0.46,0.65,0.77,0.86c0.31,0.22,0.66,0.37,1.04,0.45
		c0.38,0.08,0.76,0.13,1.12,0.13c0.72,0,1.29-0.07,1.71-0.22c0.42-0.14,0.77-0.35,1.06-0.61c0.26-0.22,0.46-0.35,0.58-0.41
		c0.12-0.06,0.32-0.09,0.61-0.09h4.68c0.53,0,0.79,0.26,0.79,0.79c0,0.29-0.18,0.73-0.54,1.31s-0.92,1.19-1.67,1.8
		c-0.76,0.61-1.73,1.15-2.93,1.6c-1.2,0.46-2.63,0.68-4.28,0.68c-1.56,0-2.95-0.22-4.16-0.67c-1.21-0.44-2.23-1.09-3.06-1.93
		c-0.83-0.84-1.45-1.86-1.87-3.06s-0.63-2.56-0.63-4.07c0-1.39,0.21-2.68,0.63-3.87s1.04-2.21,1.87-3.08
		c0.83-0.86,1.85-1.54,3.06-2.03c1.21-0.49,2.6-0.74,4.16-0.74c1.75,0,3.24,0.29,4.48,0.88c1.24,0.59,2.24,1.35,3.02,2.29
		c0.78,0.94,1.34,1.99,1.69,3.15c0.35,1.16,0.52,2.32,0.52,3.47v1.01c0,0.26-0.1,0.49-0.29,0.68c-0.19,0.19-0.42,0.29-0.68,0.29
		H96.6z M99.84,32.58c-1.01,0-1.78,0.3-2.3,0.9c-0.53,0.6-0.84,1.27-0.94,2.02h6.48c-0.1-0.74-0.41-1.42-0.94-2.02
		C101.61,32.88,100.85,32.58,99.84,32.58z"/>
	<path class="st0" d="M120.18,27.72c0.7,0,1.31,0.07,1.84,0.22c0.53,0.14,0.98,0.32,1.37,0.54c0.38,0.22,0.71,0.45,0.97,0.7
		c0.26,0.25,0.48,0.49,0.65,0.7v-7.67c0-0.26,0.1-0.49,0.29-0.68c0.19-0.19,0.42-0.29,0.68-0.29h4.54c0.26,0,0.49,0.1,0.68,0.29
		c0.19,0.19,0.29,0.42,0.29,0.68v23.62c0,0.26-0.1,0.49-0.29,0.68c-0.19,0.19-0.42,0.29-0.68,0.29h-4.36c-0.26,0-0.49-0.1-0.68-0.29
		c-0.19-0.19-0.29-0.42-0.29-0.68V45c-0.22,0.26-0.45,0.52-0.7,0.77s-0.56,0.48-0.94,0.68s-0.83,0.37-1.37,0.5s-1.21,0.2-2,0.2
		c-1.08,0-2.1-0.16-3.06-0.49s-1.8-0.83-2.52-1.51c-0.72-0.68-1.3-1.54-1.75-2.57c-0.44-1.03-0.69-2.26-0.74-3.67
		c-0.02-0.36-0.04-0.85-0.04-1.46c0-0.61,0.01-1.1,0.04-1.46c0.05-1.42,0.29-2.64,0.74-3.67c0.44-1.03,1.03-1.89,1.75-2.57
		c0.72-0.68,1.56-1.19,2.52-1.53C118.08,27.89,119.1,27.72,120.18,27.72z M118.56,36.43c-0.07,0.67-0.07,1.34,0,2.02
		c0.07,0.84,0.35,1.57,0.83,2.2c0.48,0.62,1.28,0.94,2.41,0.94c0.53,0,0.98-0.08,1.37-0.25s0.7-0.39,0.95-0.67s0.45-0.58,0.59-0.92
		c0.14-0.34,0.24-0.68,0.29-1.04c0.05-0.36,0.07-0.78,0.07-1.26c0-0.48-0.02-0.9-0.07-1.26s-0.14-0.71-0.29-1.04
		c-0.14-0.34-0.34-0.64-0.59-0.92c-0.25-0.28-0.57-0.5-0.95-0.67c-0.38-0.17-0.84-0.25-1.37-0.25c-1.13,0-1.93,0.31-2.41,0.94
		C118.9,34.86,118.63,35.59,118.56,36.43z"/>
	<path class="st0" d="M157.69,21.6c0.26,0,0.49,0.1,0.68,0.29c0.19,0.19,0.29,0.42,0.29,0.68V37.3c0,1.7-0.29,3.17-0.86,4.41
		c-0.58,1.24-1.37,2.26-2.39,3.08c-1.02,0.82-2.24,1.42-3.67,1.8c-1.43,0.38-2.99,0.58-4.7,0.58c-1.73,0-3.31-0.19-4.75-0.58
		c-1.44-0.38-2.67-0.98-3.69-1.8c-1.02-0.82-1.82-1.84-2.39-3.08s-0.86-2.71-0.86-4.41V22.57c0-0.26,0.1-0.49,0.29-0.68
		c0.19-0.19,0.42-0.29,0.68-0.29h7.06c0.26,0,0.49,0.1,0.68,0.29c0.19,0.19,0.29,0.42,0.29,0.68v14.58c0,1.85,0.89,2.77,2.66,2.77
		s2.66-0.92,2.66-2.77V22.57c0-0.26,0.1-0.49,0.29-0.68c0.19-0.19,0.42-0.29,0.68-0.29H157.69z"/>
	<path class="st0" d="M174.29,21.6c1.63,0,3.11,0.18,4.45,0.54c1.33,0.36,2.47,0.91,3.42,1.64c0.95,0.73,1.68,1.65,2.2,2.75
		c0.52,1.1,0.77,2.4,0.77,3.89c0,1.49-0.26,2.77-0.77,3.85c-0.52,1.08-1.25,1.97-2.2,2.66c-0.95,0.7-2.09,1.21-3.42,1.53
		s-2.81,0.49-4.45,0.49h-2.52v6.88c0,0.26-0.1,0.49-0.29,0.68c-0.19,0.19-0.42,0.29-0.68,0.29h-7.42c-0.26,0-0.49-0.1-0.68-0.29
		c-0.19-0.19-0.29-0.42-0.29-0.68V22.57c0-0.26,0.09-0.49,0.29-0.68c0.19-0.19,0.42-0.29,0.68-0.29H174.29z M171.58,32.29h2.52
		c0.38,0,0.76-0.15,1.12-0.45c0.36-0.3,0.54-0.8,0.54-1.49c0-0.46-0.11-0.91-0.34-1.37c-0.23-0.46-0.67-0.68-1.31-0.68h-2.52V32.29z
		"/>
</g>
<path class="st0" d="M63.12,59.46L51.08,46.93c3.1-3.68,4.79-8.31,4.79-13.14c0-11.27-9.17-20.43-20.43-20.43
	s-20.43,9.17-20.43,20.43s9.17,20.43,20.43,20.43c4.23,0,8.26-1.28,11.71-3.7l12.14,12.62c0.51,0.53,1.19,0.82,1.92,0.82
	c0.69,0,1.35-0.26,1.85-0.74C64.11,62.21,64.14,60.52,63.12,59.46z M35.44,18.69c8.33,0,15.1,6.77,15.1,15.1s-6.77,15.1-15.1,15.1
	s-15.1-6.77-15.1-15.1S27.11,18.69,35.44,18.69z"/>
</svg>
